<svg width="127" height="110" viewBox="0 0 127 110" fill="none" xmlns="http://www.w3.org/2000/svg">
<path d="M118.942 88.8275C115.863 90.4407 112.75 91.8903 109.566 93.0833C105.964 94.4159 102.301 95.3867 98.4879 95.8309C89.9641 97.246 79.6788 95.8535 71.342 91.5166C64.4962 87.9511 58.9808 82.3388 57.1383 74.423C59.2248 74.0027 61.2543 73.4295 63.2135 72.6582C67.0032 71.15 70.4785 68.8692 73.406 65.3861C75.458 62.9417 77.6851 58.9905 78.1281 55.389C78.5247 52.1852 77.6387 49.2394 74.7934 47.2751C69.1136 43.3811 63.6446 45.3228 59.3416 50.0454C54.5027 55.3651 51.3656 64.3913 51.5288 70.2257C49.4648 70.4478 47.4008 70.5768 45.3607 70.6939C36.9179 71.1607 28.4869 68.437 21.4779 63.1518C14.9942 58.2417 9.73617 51.1572 6.80869 42.353C4.34812 35.3031 4.47678 27.8089 5.6308 21.0382C6.43595 16.3276 7.78761 12.0133 9.22283 8.34135C10.5281 4.9979 11.7643 2.21568 13.1876 0.320528C13.2579 0.251372 13.2579 0.134338 13.1876 0.0638511C13.1173 -0.00663525 13.0006 -0.00663525 12.9303 0.0638511C10.983 1.58396 8.74398 3.91001 6.7742 7.10185C4.5577 10.6794 2.73913 15.2397 1.5493 20.1977C-0.234782 27.6094 -0.315696 35.9813 2.17936 43.9077C5.42122 53.7293 11.2987 61.6437 18.5398 67.1164C26.4813 73.125 36.0663 76.2118 45.6632 75.6971C47.8319 75.58 50.0365 75.4404 52.2291 75.1944C54.3276 84.7938 60.8577 91.6682 69.1374 95.8894C78.408 100.612 89.8593 101.957 99.2811 100.262C102.523 99.5255 105.637 98.4496 108.656 97.0704C110.873 96.053 113.03 94.872 115.14 93.598C115.583 93.0487 116.016 92.4875 116.459 91.9369C117.263 90.8849 118.114 89.8569 118.942 88.8275ZM63.0623 53.4367C65.5573 50.701 68.6599 49.1689 71.9482 51.4378C73.4643 52.4778 73.3476 54.2666 72.8687 55.9968C72.2506 58.2883 70.8406 60.5917 69.5579 62.1358C67.2127 64.9406 64.4033 66.7653 61.3591 67.9808C59.7965 68.6006 58.1756 69.0807 56.5202 69.4304C56.6011 64.6493 59.2248 57.6459 63.0623 53.4367ZM126.849 86.7222C126.708 87.3539 126.301 88.0442 126.021 88.4298C123.665 91.5286 121.275 94.6499 118.627 97.5612C117.438 98.8592 116.191 100.087 114.931 101.302C111.946 104.167 108.902 106.821 105.928 109.626C105.637 109.977 105.112 110.024 104.762 109.721C104.412 109.428 104.365 108.901 104.669 108.552C107.363 104.506 109.987 100.448 112.901 96.4733C113.624 95.4918 114.371 94.5329 115.13 93.574C117.158 92.3465 119.153 91.0139 121.111 89.5989C121.507 89.3528 121.624 88.8275 121.38 88.4298C121.134 88.0322 120.609 87.9152 120.214 88.1612C119.793 88.3833 119.374 88.6054 118.954 88.8275C119.141 88.5934 119.338 88.3474 119.525 88.1147C114.628 88.3008 107.456 88.9445 105.718 89.0616L101.498 89.2132C101.113 89.1547 100.273 89.4007 99.8647 89.2478C99.293 89.0376 99.549 89.1786 99.3633 88.9086C99.106 88.5469 99.0131 89.003 98.9667 88.7809C98.8739 88.3594 98.4879 88.8275 98.5821 88.5349C98.6404 88.3713 98.3605 88.5003 98.4534 88.3594C98.6868 88.0202 97.8127 87.8686 98.407 87.7635C98.5237 87.7396 98.3367 87.588 98.4998 87.6119C98.9548 87.6705 98.0926 87.0507 99.0954 87.705C99.1644 87.6345 99.2811 87.6465 99.3514 87.717C99.4217 87.7862 99.4098 87.9032 99.3395 87.9737C99.5729 88.3953 99.5145 88.2197 99.5145 88.2197C99.5145 88.2197 99.7944 88.4644 99.6658 88.3128C99.5265 88.1373 99.9112 88.3008 99.8064 88.2077C99.6658 88.0787 99.9934 88.0787 99.8647 88.0096C99.6551 87.9032 100.04 87.7635 99.8409 87.7396C99.7016 87.717 99.9112 87.5641 99.7719 87.576C99.3978 87.6119 99.7241 86.8752 99.3859 87.2249C99.2466 87.3659 99.1538 86.6996 99.037 87.0853C99.0012 87.1904 98.8036 86.9097 98.9548 86.9443C99.1538 86.9802 98.7916 86.8392 98.9322 86.5945C99.1299 86.2554 99.6193 85.9389 100.062 85.6583C100.401 85.4481 100.751 85.4016 100.996 85.3431L105.275 84.5717C107.48 84.3257 118.092 82.888 122.452 82.8415C123.77 82.8295 124.715 83.0277 125.146 83.1926C126.09 83.5783 126.499 84.2446 126.72 84.7699C126.966 85.3431 127.012 86.0213 126.849 86.7222Z" fill="#8A2BE2"/>
</svg>
