<svg width="24" height="24" viewBox="0 0 24 24" fill="none" xmlns="http://www.w3.org/2000/svg">
<g clip-path="url(#clip0_2002_26)">
<mask id="mask0_2002_26" style="mask-type:luminance" maskUnits="userSpaceOnUse" x="0" y="0" width="24" height="24">
<path d="M0.47998 0.447998H23.52V23.552H0.47998V0.447998Z" fill="white"/>
</mask>
<g mask="url(#mask0_2002_26)">
<path fill-rule="evenodd" clip-rule="evenodd" d="M12 0.480011C5.63773 0.480011 0.47998 5.63776 0.47998 12C0.47998 18.3623 5.63773 23.52 12 23.52C18.3622 23.52 23.52 18.3623 23.52 12C23.52 5.63776 18.3622 0.480011 12 0.480011ZM2.39998 12C2.39998 6.69801 6.69798 2.40001 12 2.40001C17.302 2.40001 21.6 6.69801 21.6 12C21.6 16.3205 18.746 19.9743 14.8205 21.179C14.9277 19.2388 14.891 18.0368 14.7102 17.5733C14.5192 17.0843 14.3637 16.8838 14.2705 16.7635C14.2092 16.6848 14.175 16.6405 14.175 16.572C14.175 16.4568 14.256 16.3733 14.4182 16.3215C15.8327 16.0088 16.7812 15.1395 17.2637 13.7138C17.9325 11.738 16.978 10.3015 16.592 9.72001C16.56 9.67201 16.532 9.63001 16.509 9.59376C16.209 9.11976 16.6022 7.96626 17.072 7.04326C15.4745 6.72301 14.8647 7.46501 14.5147 7.89076C14.3717 8.06451 14.2722 8.18551 14.1667 8.15976C14.0722 8.13676 13.9707 8.09226 13.849 8.03851C13.5002 7.88551 12.9857 7.65926 12 7.65926C10.7775 7.65926 9.96748 8.08626 9.84373 8.15151C9.83273 8.15726 9.82723 8.15976 9.82723 8.15976C9.18448 7.26426 8.27198 6.89201 7.08948 7.04326C7.41523 8.34476 7.43948 9.19476 7.16298 9.59376C6.74773 10.1923 5.96973 11.5843 6.57373 13.7138C7.17773 15.8433 9.37698 16.3215 9.79548 16.3215L9.79823 16.322C9.83148 16.3293 10.1395 16.3958 10.047 16.656C10.029 16.7253 10.017 16.8195 10.0032 16.9258C9.95973 17.2668 9.90023 17.73 9.57348 17.8808C9.14448 18.0783 8.19848 18.1863 7.80298 17.9395C7.67098 17.8573 7.57623 17.6855 7.46223 17.4785C7.23398 17.0643 6.92823 16.509 6.09173 16.251C4.83723 15.8635 4.91598 16.3758 5.22898 16.5013C5.29798 16.529 5.38923 16.555 5.49348 16.5845C5.86298 16.689 6.39423 16.8395 6.66673 17.2778C6.74648 17.4063 6.82873 17.547 6.91248 17.6908C7.19598 18.176 7.49948 18.6963 7.80298 18.8958C8.06498 19.0683 8.69348 19.1373 9.68773 19.1028C9.64448 20.0418 9.62148 20.7748 9.61848 21.3023C5.46848 20.243 2.39998 16.48 2.39998 12Z" fill="black" fill-opacity="0.85"/>
</g>
</g>
<defs>
<clipPath id="clip0_2002_26">
<rect width="24" height="24" fill="white"/>
</clipPath>
</defs>
</svg>
