<svg width="24" height="24" viewBox="0 0 24 24" fill="none" xmlns="http://www.w3.org/2000/svg">
<g clip-path="url(#clip0_2002_16)">
<path d="M24 20.3508C24 22.3648 22.3672 23.9978 20.353 23.9978H3.64773C1.63348 23.9978 0.000976562 22.3648 0.000976562 20.3508V3.64525C0.000976562 1.63125 1.63348 -0.00149536 3.64773 -0.00149536H20.353C22.3672 -0.00149536 24 1.63125 24 3.64525V20.3508Z" fill="#2197BD"/>
<path d="M9.49078 8.56076C9.49078 8.61951 9.48778 8.67801 9.48203 8.73651C9.47628 8.79501 9.46778 8.85301 9.45628 8.91051C9.44478 8.96801 9.43053 9.02501 9.41353 9.08126C9.39653 9.13726 9.37678 9.19251 9.35428 9.24676C9.33178 9.30101 9.30678 9.35401 9.27903 9.40601C9.25128 9.45776 9.22128 9.50801 9.18853 9.55676C9.15603 9.60551 9.12103 9.65276 9.08378 9.69801C9.04653 9.74351 9.00703 9.78701 8.96553 9.82851C8.92403 9.87001 8.88053 9.90926 8.83528 9.94651C8.78978 9.98376 8.74278 10.0188 8.69403 10.0515C8.64503 10.084 8.59478 10.1143 8.54303 10.1418C8.49128 10.1695 8.43828 10.1948 8.38403 10.217C8.32978 10.2395 8.27453 10.2593 8.21828 10.2763C8.16203 10.2935 8.10528 10.3078 8.04753 10.319C7.99003 10.3305 7.93203 10.3393 7.87353 10.345C7.81528 10.3508 7.75653 10.3535 7.69778 10.3535C7.63928 10.3535 7.58053 10.3508 7.52203 10.345C7.46378 10.3393 7.40578 10.3305 7.34803 10.319C7.29053 10.3078 7.23353 10.2935 7.17753 10.2763C7.12128 10.2593 7.06603 10.2395 7.01178 10.217C6.95753 10.1948 6.90453 10.1695 6.85278 10.1418C6.80103 10.1143 6.75078 10.084 6.70178 10.0515C6.65303 10.0188 6.60603 9.98376 6.56053 9.94651C6.51503 9.90926 6.47178 9.87001 6.43028 9.82851C6.38853 9.78701 6.34928 9.74351 6.31203 9.69801C6.27478 9.65276 6.23978 9.60551 6.20728 9.55676C6.17453 9.50801 6.14453 9.45776 6.11678 9.40601C6.08903 9.35401 6.06403 9.30101 6.04153 9.24676C6.01903 9.19251 5.99928 9.13726 5.98228 9.08126C5.96528 9.02501 5.95103 8.96801 5.93953 8.91051C5.92803 8.85301 5.91953 8.79501 5.91378 8.73651C5.90803 8.67801 5.90503 8.61951 5.90503 8.56076C5.90503 8.50201 5.90803 8.44351 5.91378 8.38501C5.91953 8.32651 5.92803 8.26851 5.93953 8.21101C5.95103 8.15351 5.96528 8.09651 5.98228 8.04026C5.99928 7.98426 6.01903 7.92901 6.04153 7.87476C6.06403 7.82051 6.08903 7.76751 6.11678 7.71576C6.14453 7.66376 6.17453 7.61351 6.20728 7.56476C6.23978 7.51601 6.27478 7.46876 6.31203 7.42351C6.34928 7.37801 6.38853 7.33451 6.43028 7.29301C6.47178 7.25151 6.51503 7.21226 6.56053 7.17501C6.60603 7.13776 6.65303 7.10276 6.70178 7.07001C6.75078 7.03751 6.80103 7.00726 6.85278 6.97976C6.90453 6.95201 6.95753 6.92701 7.01178 6.90451C7.06603 6.88201 7.12128 6.86226 7.17753 6.84526C7.23353 6.82801 7.29053 6.81376 7.34803 6.80251C7.40578 6.79101 7.46378 6.78226 7.52203 6.77651C7.58053 6.77076 7.63928 6.76801 7.69778 6.76801C7.75653 6.76801 7.81528 6.77076 7.87353 6.77651C7.93203 6.78226 7.99003 6.79101 8.04753 6.80251C8.10528 6.81376 8.16203 6.82801 8.21828 6.84526C8.27453 6.86226 8.32978 6.88201 8.38403 6.90451C8.43828 6.92701 8.49128 6.95201 8.54303 6.97976C8.59478 7.00726 8.64503 7.03751 8.69403 7.07001C8.74278 7.10276 8.78978 7.13776 8.83528 7.17501C8.88053 7.21226 8.92403 7.25151 8.96553 7.29301C9.00703 7.33451 9.04653 7.37801 9.08378 7.42351C9.12103 7.46876 9.15603 7.51601 9.18853 7.56476C9.22128 7.61351 9.25128 7.66376 9.27903 7.71576C9.30678 7.76751 9.33178 7.82051 9.35428 7.87476C9.37678 7.92901 9.39653 7.98426 9.41353 8.04026C9.43053 8.09651 9.44478 8.15351 9.45628 8.21101C9.46778 8.26851 9.47628 8.32651 9.48203 8.38501C9.48778 8.44351 9.49078 8.50201 9.49078 8.56076Z" fill="white"/>
<path d="M6.15222 11.6753H9.23222V21.5835H6.15222V11.6753Z" fill="white"/>
<path d="M11.1695 11.6753H14.101V21.5835H11.1695V11.6753Z" fill="white"/>
<path d="M11.2963 16.9507H14.2275V21.5835H11.2963V16.9507Z" fill="white"/>
<path d="M14.2275 16.9508C14.2275 16.9508 14.1818 15.6655 14.5208 14.9975C14.5208 14.9975 14.8598 14.1745 15.925 14.1695C15.925 14.1695 17.1745 13.9515 17.5328 15.1913C17.5328 15.1913 17.6685 15.8788 17.6685 16.1695C17.6685 16.4603 17.6783 21.5838 17.6783 21.5838H20.7483V15.908C20.7483 15.908 20.9713 12.702 19.047 11.8238C19.047 11.8238 15.883 10.4033 14.1658 13.012C14.1658 13.012 13.791 13.27 13.7393 12.547C13.6878 11.8238 13.2488 13.6575 13.2358 13.6965C13.2228 13.7353 13.7393 17.351 13.7393 17.351L14.2275 16.9508Z" fill="white"/>
</g>
<defs>
<clipPath id="clip0_2002_16">
<rect width="24" height="24" fill="white"/>
</clipPath>
</defs>
</svg>
