<svg width="60" height="25" viewBox="0 0 60 25" fill="none" xmlns="http://www.w3.org/2000/svg">
<path d="M11.008 14.144L7.936 2.144C6.42133 2.72 5.248 3.616 4.416 4.832C3.584 6.02667 3.168 7.49867 3.168 9.248C3.168 10.0373 3.24267 10.592 3.392 10.912C3.54133 11.2107 3.616 11.3813 3.616 11.424C2.464 11.424 1.6 11.1893 1.024 10.72C0.469333 10.2293 0.192 9.42933 0.192 8.32C0.192 6.95467 0.746667 5.632 1.856 4.352C2.98667 3.05067 4.42667 2.00533 6.176 1.216C7.92533 0.405332 9.67467 -1.90735e-06 11.424 -1.90735e-06C11.7227 -1.90735e-06 12.1493 0.0213318 12.704 0.0639992L15.488 11.52L20.224 0.159998H22.336L16.128 14.144L14.016 24H8.896L11.008 14.144ZM23.0118 24.192C21.9878 24.192 21.1558 23.872 20.5158 23.232C19.8971 22.592 19.5877 21.632 19.5877 20.352C19.5877 19.8187 19.6731 19.1253 19.8438 18.272L22.0198 8H26.6278L24.3238 18.88C24.2598 19.2 24.2278 19.4987 24.2278 19.776C24.2278 20.6507 24.5478 21.088 25.1878 21.088C25.7851 21.088 26.2971 20.8427 26.7238 20.352C27.1504 19.84 27.4918 19.1467 27.7478 18.272L29.9238 8H34.5318L32.2278 18.88C32.1424 19.2 32.0998 19.5413 32.0998 19.904C32.0998 20.3307 32.1958 20.64 32.3878 20.832C32.6011 21.0027 32.9424 21.088 33.4118 21.088C34.0091 21.088 34.5211 20.832 34.9478 20.32C35.3958 19.808 35.7478 19.1253 36.0037 18.272H37.3478C36.5584 20.576 35.5771 22.144 34.4038 22.976C33.2518 23.7867 32.0891 24.192 30.9158 24.192C29.9984 24.192 29.2624 23.936 28.7078 23.424C28.1744 22.912 27.8544 22.1547 27.7478 21.152C27.0224 22.3253 26.2544 23.1253 25.4438 23.552C24.6544 23.9787 23.8438 24.192 23.0118 24.192ZM41.344 6.272C40.64 6.272 40.0427 6.02667 39.552 5.536C39.0613 5.04533 38.816 4.448 38.816 3.744C38.816 3.04 39.0613 2.44267 39.552 1.952C40.0427 1.44 40.64 1.184 41.344 1.184C42.048 1.184 42.6453 1.44 43.136 1.952C43.648 2.44267 43.904 3.04 43.904 3.744C43.904 4.448 43.648 5.04533 43.136 5.536C42.6453 6.02667 42.048 6.272 41.344 6.272ZM39.168 24.192C38.144 24.192 37.312 23.872 36.672 23.232C36.0533 22.592 35.744 21.632 35.744 20.352C35.744 19.8187 35.8293 19.1253 36 18.272L38.176 8H42.784L40.48 18.88C40.3947 19.2 40.352 19.5413 40.352 19.904C40.352 20.3307 40.448 20.64 40.64 20.832C40.8533 21.0027 41.1947 21.088 41.664 21.088C42.2827 21.088 42.8587 20.832 43.392 20.32C43.9253 19.7867 44.3093 19.104 44.544 18.272H45.888C45.0987 20.576 44.0853 22.144 42.848 22.976C41.6107 23.7867 40.384 24.192 39.168 24.192ZM55.5393 24.192C54.4086 24.192 53.5873 23.8507 53.0753 23.168C52.5633 22.4853 52.3073 21.6213 52.3073 20.576C52.3073 20.128 52.3606 19.6267 52.4673 19.072C52.5739 18.496 52.6806 17.9413 52.7873 17.408C52.9153 16.8747 53.0006 16.5333 53.0433 16.384C53.2139 15.6373 53.3739 14.9013 53.5233 14.176C53.6726 13.4507 53.7473 12.864 53.7473 12.416C53.7473 11.328 53.3633 10.784 52.5953 10.784C52.0406 10.784 51.5499 11.0613 51.1233 11.616C50.6966 12.1493 50.3553 12.8533 50.0993 13.728L47.9233 24H43.3152L46.7073 8H51.3153L50.9633 9.664C52.0299 8.46933 53.2779 7.872 54.7073 7.872C55.7953 7.872 56.6593 8.17067 57.2993 8.768C57.9393 9.36533 58.2593 10.272 58.2593 11.488C58.2593 12.1067 58.1846 12.8 58.0353 13.568C57.8859 14.3147 57.6726 15.232 57.3953 16.32C57.2246 16.9813 57.0646 17.632 56.9153 18.272C56.7873 18.8907 56.7233 19.3813 56.7233 19.744C56.7233 20.1707 56.8193 20.5013 57.0113 20.736C57.2033 20.9707 57.5339 21.088 58.0033 21.088C58.5153 21.088 58.8673 21.024 59.0593 20.896C58.9313 21.984 58.5366 22.8053 57.8753 23.36C57.2353 23.9147 56.4566 24.192 55.5393 24.192Z" fill="black"/>
</svg>
