<svg width="38" height="40" viewBox="0 0 38 40" fill="none" xmlns="http://www.w3.org/2000/svg">
<circle cx="19" cy="20" r="19" fill="white"/>
<path d="M17.008 22.144L13.936 10.144C12.4213 10.72 11.248 11.616 10.416 12.832C9.584 14.0267 9.168 15.4987 9.168 17.248C9.168 18.0373 9.24267 18.592 9.392 18.912C9.54133 19.2107 9.616 19.3813 9.616 19.424C8.464 19.424 7.6 19.1893 7.024 18.72C6.46933 18.2293 6.192 17.4293 6.192 16.32C6.192 14.9547 6.74667 13.632 7.856 12.352C8.98667 11.0507 10.4267 10.0053 12.176 9.216C13.9253 8.40533 15.6747 8 17.424 8C17.7227 8 18.1493 8.02133 18.704 8.064L21.488 19.52L26.224 8.16H28.336L22.128 22.144L20.016 32H14.896L17.008 22.144Z" fill="black"/>
</svg>
