<svg width="23" height="24" viewBox="0 0 23 24" fill="none" xmlns="http://www.w3.org/2000/svg">
<path d="M11.008 14.144L7.936 2.144C6.42133 2.72 5.248 3.616 4.416 4.832C3.584 6.02667 3.168 7.49867 3.168 9.248C3.168 10.0373 3.24267 10.592 3.392 10.912C3.54133 11.2107 3.616 11.3813 3.616 11.424C2.464 11.424 1.6 11.1893 1.024 10.72C0.469333 10.2293 0.192 9.42933 0.192 8.32C0.192 6.95467 0.746667 5.632 1.856 4.352C2.98667 3.05067 4.42667 2.00533 6.176 1.216C7.92533 0.405332 9.67467 -1.90735e-06 11.424 -1.90735e-06C11.7227 -1.90735e-06 12.1493 0.0213318 12.704 0.0639992L15.488 11.52L20.224 0.159998H22.336L16.128 14.144L14.016 24H8.896L11.008 14.144Z" fill="black"/>
</svg>
